<mxfile host="65bd71144e">
    <diagram id="GDJI3RgzADm5gkURgZzw" name="Page-1">
        <mxGraphModel dx="787" dy="615" grid="1" gridSize="10" guides="1" tooltips="1" connect="1" arrows="1" fold="1" page="1" pageScale="1" pageWidth="583" pageHeight="413" math="0" shadow="0">
            <root>
                <mxCell id="0"/>
                <mxCell id="3" value="DiagramFrame" style="locked=1;" parent="0"/>
                <mxCell id="4" value="Fachlicher Kontext" style="shape=umlFrame;whiteSpace=wrap;html=1;pointerEvents=0;recursiveResize=0;container=1;collapsible=0;width=160;fillColor=none;align=left;spacingLeft=4;" parent="3" vertex="1">
                    <mxGeometry x="583" width="577" height="410" as="geometry"/>
                </mxCell>
                <mxCell id="1" value="Content" style="" parent="0"/>
                <mxCell id="41" style="edgeStyle=none;shape=connector;rounded=1;html=1;strokeColor=default;align=center;verticalAlign=middle;fontFamily=Helvetica;fontSize=11;fontColor=default;labelBackgroundColor=default;startArrow=open;startFill=0;endArrow=open;endFill=0;" edge="1" parent="1" source="5" target="27">
                    <mxGeometry relative="1" as="geometry"/>
                </mxCell>
                <mxCell id="43" value="IF_FC_SYS_NB" style="edgeLabel;html=1;align=center;verticalAlign=middle;resizable=0;points=[];fontFamily=Helvetica;fontSize=11;fontColor=default;labelBackgroundColor=default;" vertex="1" connectable="0" parent="41">
                    <mxGeometry x="-0.1176" relative="1" as="geometry">
                        <mxPoint y="-17" as="offset"/>
                    </mxGeometry>
                </mxCell>
                <mxCell id="5" value="System" style="rounded=0;whiteSpace=wrap;html=1;fillColor=#f5f5f5;container=1;collapsible=0;recursiveResize=0;align=center;verticalAlign=middle;spacingLeft=4;spacingTop=4;strokeColor=#666666;fontFamily=Helvetica;fontSize=11;fontColor=#333333;labelBackgroundColor=none;" vertex="1" parent="1">
                    <mxGeometry x="822" y="115" width="106" height="183" as="geometry"/>
                </mxCell>
                <mxCell id="40" style="edgeStyle=none;html=1;endArrow=open;endFill=0;startArrow=open;startFill=0;" edge="1" parent="1" source="24" target="5">
                    <mxGeometry relative="1" as="geometry"/>
                </mxCell>
                <mxCell id="42" value="IF_FC_User_SYS" style="edgeLabel;html=1;align=center;verticalAlign=middle;resizable=0;points=[];fontFamily=Helvetica;fontSize=11;fontColor=default;labelBackgroundColor=default;" vertex="1" connectable="0" parent="40">
                    <mxGeometry x="-0.1785" y="2" relative="1" as="geometry">
                        <mxPoint x="14" y="-15" as="offset"/>
                    </mxGeometry>
                </mxCell>
                <mxCell id="24" value="User" style="shape=umlActor;verticalLabelPosition=bottom;verticalAlign=top;html=1;outlineConnect=0;fontFamily=Helvetica;fontSize=11;fontColor=default;labelBackgroundColor=default;" vertex="1" parent="1">
                    <mxGeometry x="680" y="177" width="30" height="60" as="geometry"/>
                </mxCell>
                <mxCell id="27" value="Nachbar" style="rounded=0;whiteSpace=wrap;html=1;fontFamily=Helvetica;fontSize=11;fontColor=#333333;labelBackgroundColor=none;fillColor=#f5f5f5;strokeColor=#666666;" vertex="1" parent="1">
                    <mxGeometry x="1030" y="154.5" width="60" height="105" as="geometry"/>
                </mxCell>
            </root>
        </mxGraphModel>
    </diagram>
</mxfile>
